<?xml version="1.0" encoding="UTF-8" standalone="no"?>
<!DOCTYPE svg PUBLIC "-//W3C//DTD SVG 1.1//EN" "http://www.w3.org/Graphics/SVG/1.1/DTD/svg11.dtd">
<svg width="100%" height="100%" viewBox="0 0 400 200" version="1.1" xmlns="http://www.w3.org/2000/svg" xmlns:xlink="http://www.w3.org/1999/xlink" xml:space="preserve" xmlns:serif="http://www.serif.com/" style="fill-rule:evenodd;clip-rule:evenodd;stroke-linejoin:round;stroke-miterlimit:2;">
    <g id="Layer-1" serif:id="Layer 1" transform="matrix(0.518761,0,0,0.518761,-5.42906,10.2545)">
        <g transform="matrix(1,0,0,1,348.078,178.388)">
            <path d="M0,-82.887L-20.412,-82.887L-20.412,-33.154L-51.08,-82.887L-73.978,-82.887L-73.978,0L-53.566,0L-53.566,-49.628L-22.068,0L0,0L0,-82.887Z" style="fill:white;fill-rule:nonzero;"/>
        </g>
        <g transform="matrix(-1,0,0,1,733.454,-72.111)">
            <rect x="356.366" y="167.612" width="20.722" height="82.887" style="fill:white;"/>
        </g>
        <g transform="matrix(1,0,0,1,401.59,100.889)">
            <path d="M0,72.113C2.659,73.977 5.439,75.221 8.342,75.841C10.689,76.396 12.605,76.811 14.091,77.085C15.577,77.363 16.629,77.5 17.251,77.5L52.582,77.5L52.582,58.022L19.22,58.022C9.135,58.022 4.092,49.181 4.092,31.497C4.092,30.462 4.714,27.767 5.958,23.417C6.233,22.45 6.77,21.414 7.565,20.308C8.358,19.203 9.274,18.183 10.31,17.251C11.345,16.319 12.434,15.56 13.573,14.972C14.713,14.386 15.766,14.091 16.734,14.091L43.154,14.091L52.686,-5.387L20.464,-5.387C14.937,-5.387 9.93,-4.367 5.439,-2.33C0.948,-0.292 -2.901,2.558 -6.112,6.218C-9.324,9.879 -11.81,14.282 -13.572,19.427C-15.333,24.574 -16.215,30.255 -16.215,36.471C-16.215,38.889 -15.903,42.48 -15.283,47.247C-14.868,50.493 -13.934,53.688 -12.485,56.83C-11.033,59.974 -9.256,62.839 -7.148,65.43C-5.042,68.019 -2.659,70.247 0,72.113" style="fill:white;fill-rule:nonzero;"/>
        </g>
        <g transform="matrix(1,0,0,1,475.673,145.907)">
            <path d="M0,-17.924C0.862,-20.791 2.106,-23.26 3.728,-25.332C5.351,-27.405 7.32,-29.011 9.634,-30.151C11.948,-31.29 14.52,-31.86 17.354,-31.86C20.116,-31.86 22.638,-31.254 24.917,-30.046C27.196,-28.837 29.165,-27.198 30.823,-25.125C32.48,-23.053 33.758,-20.617 34.656,-17.821C35.554,-15.023 36.003,-12.034 36.003,-8.859C36.003,-5.611 35.537,-2.591 34.605,0.207C33.672,3.005 32.377,5.439 30.719,7.512C29.062,9.584 27.057,11.226 24.71,12.434C22.361,13.642 19.804,14.246 17.042,14.246C14.349,14.246 11.879,13.66 9.634,12.485C7.39,11.311 5.455,9.705 3.833,7.667C2.209,5.63 0.948,3.23 0.051,0.467C-0.847,-2.295 -1.296,-5.301 -1.296,-8.547C-1.296,-11.931 -0.865,-15.057 0,-17.924M-10.206,20.981C-6.891,24.643 -2.92,27.475 1.709,29.476C6.335,31.481 11.448,32.482 17.042,32.482C22.638,32.482 27.715,31.445 32.273,29.373C36.832,27.3 40.751,24.417 44.033,20.722C47.314,17.028 49.836,12.64 51.597,7.563C53.359,2.486 54.238,-3.056 54.238,-9.067C54.238,-15.005 53.359,-20.497 51.597,-25.539C49.836,-30.58 47.348,-34.95 44.137,-38.646C40.924,-42.34 37.056,-45.224 32.532,-47.298C28.007,-49.369 22.983,-50.406 17.457,-50.406C11.863,-50.406 6.716,-49.369 2.019,-47.298C-2.679,-45.224 -6.701,-42.358 -10.051,-38.698C-13.402,-35.035 -16.009,-30.668 -17.873,-25.591C-19.739,-20.515 -20.671,-14.935 -20.671,-8.859C-20.671,-2.71 -19.755,2.884 -17.925,7.927C-16.096,12.969 -13.521,17.321 -10.206,20.981" style="fill:white;fill-rule:nonzero;"/>
        </g>
        <g transform="matrix(1,0,0,1,594.562,114.98)">
            <path d="M0,43.931L-36.781,43.931L-36.781,-19.478L-57.503,-19.478L-57.503,63.409L0,63.409L0,43.931Z" style="fill:white;fill-rule:nonzero;"/>
        </g>
        <g transform="matrix(1,0,0,1,629.581,130.004)">
            <path d="M0,13.882L5.802,-3.42L11.5,13.882L0,13.882ZM-4.559,-34.503L-32.222,48.385L-11.5,48.385L-1.866,19.581L4.662,33.361L18.027,33.361L23.002,48.385L43.724,48.385L16.162,-34.503L-4.559,-34.503Z" style="fill:white;fill-rule:nonzero;"/>
        </g>
        <g transform="matrix(1,0,0,1,723.449,146.27)">
            <path d="M0,-18.649L-18.856,-18.649C-20.722,-18.649 -22.362,-19.253 -23.778,-20.463C-25.195,-21.671 -25.901,-23.208 -25.901,-25.073C-25.901,-29.356 -23.554,-31.498 -18.856,-31.498L14.506,-31.29L23.727,-50.768L-21.136,-50.768C-24.659,-50.768 -27.87,-50.146 -30.771,-48.902C-33.673,-47.66 -36.143,-45.915 -38.18,-43.671C-40.218,-41.426 -41.79,-38.713 -42.893,-35.538C-44,-32.36 -44.552,-28.871 -44.552,-25.073C-44.552,-19.408 -43.378,-14.47 -41.029,-10.257C-39.992,-8.254 -38.853,-6.543 -37.611,-5.129C-36.367,-3.712 -34.813,-2.573 -32.947,-1.709C-31.083,-0.844 -28.82,-0.208 -26.161,0.207C-23.503,0.622 -20.239,0.829 -16.37,0.829L-5.077,0.829C-4.318,0.829 -3.696,0.795 -3.211,0.726C-0.588,1.002 1.415,1.745 2.798,2.953C4.179,4.162 4.87,5.561 4.87,7.15C4.87,9.084 4.127,10.62 2.643,11.76C1.156,12.899 -0.795,13.469 -3.211,13.469L-44.552,13.469L-44.552,32.119L0,32.119C3.66,32.119 6.959,31.515 9.896,30.305C12.831,29.097 15.317,27.352 17.354,25.073C19.391,22.795 20.963,20.049 22.068,16.836C23.174,13.625 23.727,10.05 23.727,6.113C23.727,-10.396 15.816,-18.649 0,-18.649" style="fill:white;fill-rule:nonzero;"/>
        </g>
        <g transform="matrix(1,0,0,1,305.75,230.552)">
            <path d="M0,-13.923C-0.246,-13.273 -0.583,-12.679 -1.009,-12.14C-1.435,-11.603 -1.928,-11.154 -2.488,-10.795C-3.049,-10.436 -3.621,-10.257 -4.203,-10.257L-19.003,-10.257L-19.003,-21.357L-4.742,-21.357C-3.307,-21.357 -2.096,-20.795 -1.109,-19.676C-0.124,-18.554 0.37,-17.253 0.37,-15.774C0.37,-15.19 0.246,-14.573 0,-13.923M1.918,0.64C2.008,0.552 2.096,0.483 2.187,0.439C3.936,-0.369 5.46,-1.277 6.761,-2.286C8.061,-3.294 9.138,-4.473 9.99,-5.818C10.841,-7.163 11.469,-8.688 11.874,-10.392C12.277,-12.096 12.48,-14.047 12.48,-16.244C12.48,-18.575 12.086,-20.807 11.301,-22.937C10.516,-25.067 9.452,-26.94 8.107,-28.554C6.761,-30.169 5.157,-31.457 3.297,-32.423C1.435,-33.386 -0.571,-33.869 -2.723,-33.869L-31.649,-33.869L-31.649,19.946L-18.936,19.946L-18.936,-7.028L-1.244,19.946L13.219,19.946L1.515,0.909C1.693,0.819 1.828,0.731 1.918,0.64" style="fill:rgb(255,191,0);fill-rule:nonzero;"/>
        </g>
        <g transform="matrix(1,0,0,1,367.773,217.637)">
            <path d="M0,11.908C-0.606,13.723 -1.446,15.305 -2.524,16.65C-3.599,17.995 -4.9,19.061 -6.425,19.845C-7.95,20.63 -9.61,21.022 -11.402,21.022C-13.152,21.022 -14.755,20.641 -16.213,19.879C-17.671,19.117 -18.926,18.074 -19.979,16.751C-21.034,15.429 -21.853,13.87 -22.434,12.076C-23.019,10.282 -23.309,8.331 -23.309,6.224C-23.309,4.027 -23.03,1.998 -22.469,0.135C-21.908,-1.724 -21.1,-3.329 -20.046,-4.674C-18.993,-6.019 -17.715,-7.062 -16.213,-7.802C-14.711,-8.543 -13.04,-8.912 -11.202,-8.912C-9.407,-8.912 -7.77,-8.518 -6.29,-7.735C-4.811,-6.95 -3.532,-5.885 -2.457,-4.54C-1.379,-3.195 -0.55,-1.613 0.033,0.202C0.615,2.019 0.908,3.96 0.908,6.022C0.908,8.131 0.604,10.091 0,11.908M6.188,-13.318C4.102,-15.717 1.59,-17.59 -1.347,-18.935C-4.283,-20.28 -7.547,-20.954 -11.133,-20.954C-14.767,-20.954 -18.108,-20.28 -21.156,-18.935C-24.207,-17.59 -26.819,-15.729 -28.993,-13.352C-31.169,-10.975 -32.862,-8.138 -34.072,-4.842C-35.283,-1.546 -35.888,2.076 -35.888,6.022C-35.888,10.013 -35.294,13.647 -34.106,16.92C-32.917,20.192 -31.248,23.018 -29.094,25.395C-26.941,27.772 -24.364,29.61 -21.358,30.911C-18.355,32.212 -15.034,32.862 -11.402,32.862C-7.77,32.862 -4.474,32.189 -1.515,30.844C1.446,29.499 3.99,27.627 6.12,25.227C8.25,22.829 9.888,19.98 11.032,16.683C12.175,13.387 12.748,9.789 12.748,5.888C12.748,2.03 12.175,-1.535 11.032,-4.809C9.888,-8.082 8.273,-10.918 6.188,-13.318" style="fill:rgb(255,191,0);fill-rule:nonzero;"/>
        </g>
        <g transform="matrix(1,0,0,1,424.782,223.389)">
            <path d="M0,0.403C0,4.753 -0.819,8.185 -2.455,10.695C-4.094,13.208 -6.414,14.463 -9.419,14.463C-12.423,14.463 -14.755,13.196 -16.414,10.663C-18.074,8.129 -18.903,4.709 -18.903,0.403L-18.903,-26.706L-31.55,-26.706L-31.55,7.399C-31.55,8.431 -31.146,9.979 -30.338,12.04C-26.483,22.088 -19.419,27.109 -9.15,27.109C-4.799,27.109 -0.808,25.909 2.824,23.51C6.458,21.112 9.326,17.289 11.435,12.04C12.287,9.933 12.713,8.387 12.713,7.399L12.713,-26.706L0,-26.706L0,0.403Z" style="fill:rgb(255,191,0);fill-rule:nonzero;"/>
        </g>
        <g transform="matrix(1,0,0,1,467.295,237.986)">
            <path d="M0,-28.791L21.66,-28.656L27.646,-41.303L-1.481,-41.303C-3.768,-41.303 -5.852,-40.899 -7.736,-40.092C-9.62,-39.284 -11.224,-38.151 -12.547,-36.695C-13.869,-35.237 -14.891,-33.476 -15.607,-31.414C-16.324,-29.351 -16.683,-27.085 -16.683,-24.62C-16.683,-20.942 -15.921,-17.736 -14.396,-15C-13.724,-13.699 -12.984,-12.589 -12.176,-11.67C-11.37,-10.751 -10.359,-10.012 -9.15,-9.45C-7.938,-8.89 -6.469,-8.476 -4.744,-8.206C-3.017,-7.937 -0.898,-7.803 1.615,-7.803L8.946,-7.803C9.439,-7.803 9.844,-7.824 10.157,-7.87C11.861,-7.69 13.161,-7.207 14.058,-6.424C14.955,-5.639 15.403,-4.731 15.403,-3.699C15.403,-2.444 14.922,-1.447 13.957,-0.705C12.992,0.034 11.726,0.405 10.157,0.405L-16.683,0.405L-16.683,12.512L12.243,12.512C14.618,12.512 16.76,12.12 18.667,11.335C20.572,10.552 22.186,9.417 23.51,7.938C24.832,6.458 25.853,4.675 26.571,2.59C27.287,0.504 27.646,-1.815 27.646,-4.372C27.646,-15.09 22.511,-20.449 12.243,-20.449L0,-20.449C-1.211,-20.449 -2.277,-20.841 -3.196,-21.626C-4.115,-22.41 -4.576,-23.409 -4.576,-24.62C-4.576,-27.4 -3.051,-28.791 0,-28.791" style="fill:rgb(255,191,0);fill-rule:nonzero;"/>
        </g>
        <g transform="matrix(1,0,0,1,523.801,237.986)">
            <path d="M0,-28.791L21.66,-28.656L27.646,-41.303L-1.481,-41.303C-3.768,-41.303 -5.852,-40.899 -7.736,-40.092C-9.62,-39.284 -11.224,-38.151 -12.547,-36.695C-13.869,-35.237 -14.891,-33.476 -15.607,-31.414C-16.324,-29.351 -16.683,-27.085 -16.683,-24.62C-16.683,-20.942 -15.921,-17.736 -14.396,-15C-13.724,-13.699 -12.984,-12.589 -12.176,-11.67C-11.37,-10.751 -10.359,-10.012 -9.15,-9.45C-7.938,-8.89 -6.469,-8.476 -4.744,-8.206C-3.017,-7.937 -0.898,-7.803 1.615,-7.803L8.946,-7.803C9.439,-7.803 9.844,-7.824 10.157,-7.87C11.861,-7.69 13.161,-7.207 14.058,-6.424C14.955,-5.639 15.403,-4.731 15.403,-3.699C15.403,-2.444 14.922,-1.447 13.957,-0.705C12.992,0.034 11.726,0.405 10.157,0.405L-16.683,0.405L-16.683,12.512L12.243,12.512C14.618,12.512 16.76,12.12 18.667,11.335C20.572,10.552 22.186,9.417 23.51,7.938C24.832,6.458 25.853,4.675 26.571,2.59C27.287,0.504 27.646,-1.815 27.646,-4.372C27.646,-15.09 22.511,-20.449 12.243,-20.449L0,-20.449C-1.211,-20.449 -2.277,-20.841 -3.196,-21.626C-4.115,-22.41 -4.576,-23.409 -4.576,-24.62C-4.576,-27.4 -3.051,-28.791 0,-28.791" style="fill:rgb(255,191,0);fill-rule:nonzero;"/>
        </g>
        <g transform="matrix(1,0,0,1,0,142.419)">
            <rect x="563.622" y="95.501" width="37.132" height="12.579" style="fill:rgb(255,191,0);"/>
        </g>
        <g transform="matrix(1,0,0,1,563.824,196.683)">
            <path d="M0,12.579L33.701,12.579L39.687,0L0,0L0,12.579Z" style="fill:rgb(255,191,0);fill-rule:nonzero;"/>
        </g>
        <g transform="matrix(-1,0,0,1,1161.42,100.847)">
            <rect x="563.824" y="116.287" width="33.768" height="12.579" style="fill:rgb(255,191,0);"/>
        </g>
        <g transform="matrix(1,0,0,1,627.728,250.499)">
            <path d="M0,-53.816L-13.454,-53.816L-13.454,0L23.88,0L23.88,-12.647L0,-12.647L0,-53.816Z" style="fill:rgb(255,191,0);fill-rule:nonzero;"/>
        </g>
        <g transform="matrix(1,0,0,1,104.348,77.1167)">
            <path d="M0,6.698C-0.523,4.313 0.261,2.026 2.172,0.621C4.982,-1.469 7.824,-3.756 11.042,-4.932C32.049,-12.545 53.17,-12.528 74.193,-4.916C77.297,-3.789 80.09,-1.633 82.785,0.376C84.795,1.846 85.807,4.166 85.268,6.747C83.52,14.833 81.658,22.886 79.796,31.217C79.486,31.102 79.143,30.988 78.816,30.874C88.192,34.418 96.915,39.319 104.74,45.363C104.315,44.971 103.874,44.612 103.449,44.219C103.563,43.517 103.629,42.913 103.76,42.292C106.014,32.377 108.448,22.494 110.457,12.513C112.793,1.144 109.967,-8.885 101.718,-17.265C96.441,-22.672 90.12,-26.527 83.161,-29.223C60.75,-37.945 37.832,-38.73 14.603,-33.306C3.969,-30.807 -5.995,-26.707 -14.326,-19.373C-24.274,-10.633 -27.9,0.278 -25.14,13.216C-22.934,23.539 -20.5,33.798 -18.148,44.285C-18.638,44.66 -19.112,45.036 -19.602,45.428C-12.039,39.597 -3.61,34.794 5.423,31.233C3.561,22.87 1.715,14.8 0,6.698" style="fill:rgb(255,191,0);fill-rule:nonzero;"/>
        </g>
        <g transform="matrix(1,0,0,1,158.139,226.827)">
            <path d="M0,-46.701L20.141,-46.701C22.183,-46.701 23.882,-45.917 25.286,-44.332C26.675,-42.748 27.377,-40.902 27.377,-38.811C27.377,-37.995 27.198,-37.112 26.855,-36.198C26.495,-35.283 26.021,-34.433 25.417,-33.682C24.813,-32.914 24.127,-32.277 23.326,-31.771C22.542,-31.265 21.726,-31.019 20.909,-31.019L0,-31.019L0,-46.701ZM50.949,-104.347C43.124,-110.391 34.402,-115.292 25.025,-118.836C13.77,-123.149 1.568,-125.485 -11.173,-125.485C-24.012,-125.485 -36.345,-123.1 -47.665,-118.722C-47.927,-118.657 -48.139,-118.559 -48.368,-118.477C-57.401,-114.916 -65.83,-110.113 -73.393,-104.282C-73.72,-104.037 -74.047,-103.792 -74.357,-103.514C-98.075,-84.81 -113.316,-55.832 -113.316,-23.342C-113.316,9.867 -97.389,39.417 -72.772,58.071C-71.172,59.28 -69.538,60.44 -67.872,61.567C-62.04,65.471 -55.768,68.804 -49.152,71.466L-49.152,-33.862L-22.771,7.694L-20.255,11.664L0.098,11.664L0.098,-26.462L4.901,-19.111L41.164,36.362C39.923,37.457 38.665,38.502 37.358,39.499C23.931,49.904 7.089,56.095 -11.173,56.095C-22.967,56.095 -34.173,53.514 -44.252,48.859L-44.252,73.279C-33.879,76.857 -22.755,78.784 -11.173,78.784C11.663,78.784 32.784,71.254 49.822,58.545C51.129,57.565 52.419,56.552 53.693,55.507C58.267,51.733 62.514,47.568 66.353,43.076L53.399,22.87L28.995,-15.24C29.239,-15.371 29.436,-15.485 29.566,-15.616C29.68,-15.746 29.811,-15.844 29.942,-15.91C32.409,-17.037 34.565,-18.327 36.411,-19.748C38.24,-21.186 39.759,-22.836 40.968,-24.747C42.177,-26.642 43.059,-28.798 43.631,-31.215C44.203,-33.617 44.48,-36.377 44.48,-39.481C44.48,-42.764 43.925,-45.933 42.814,-48.939C41.703,-51.945 40.2,-54.591 38.305,-56.878C36.411,-59.148 34.14,-60.978 31.51,-62.334C28.88,-63.706 26.038,-64.375 23,-64.375L-18.736,-64.375L-18.736,-18.752L-22.771,-25.302L-46.865,-64.375L-67.872,-64.375L-67.872,32.229C-69.603,30.482 -71.237,28.652 -72.772,26.741C-83.929,13.069 -90.61,-4.361 -90.61,-23.342C-90.61,-42.715 -83.651,-60.488 -72.086,-74.274C-57.499,-91.688 -35.61,-102.795 -11.173,-102.795C1.176,-102.795 12.856,-99.969 23.277,-94.938C49.887,-82.066 68.264,-54.803 68.264,-23.342C68.264,-8.02 63.919,6.29 56.372,18.427L69.62,39.09C82.998,21.824 90.969,0.148 90.969,-23.342C90.969,-56.306 75.255,-85.676 50.949,-104.347" style="fill:rgb(255,191,0);fill-rule:nonzero;"/>
        </g>
    </g>
</svg>
